<svg xmlns="http://www.w3.org/2000/svg" xmlns:xlink="http://www.w3.org/1999/xlink" viewBox="0 0 1156.33 282"><defs><style>.cls-1{fill:url(#linear-gradient);}.cls-2{fill:url(#linear-gradient-2);}.cls-3{fill:url(#linear-gradient-3);}.cls-4{fill:url(#linear-gradient-4);}.cls-5{fill:url(#linear-gradient-5);}.cls-6{fill:url(#linear-gradient-6);}.cls-7{fill:url(#linear-gradient-7);}.cls-8{fill:url(#linear-gradient-8);}.cls-9{fill:url(#linear-gradient-9);}.cls-10{fill:url(#linear-gradient-10);}.cls-11{fill:url(#linear-gradient-11);}.cls-12{fill:url(#linear-gradient-12);}.cls-13{fill:url(#linear-gradient-13);}.cls-14{fill:url(#linear-gradient-14);}.cls-15{fill:url(#linear-gradient-15);}.cls-16{fill:url(#linear-gradient-16);}.cls-17{fill:url(#linear-gradient-17);}.cls-18{fill:url(#linear-gradient-18);}.cls-19{fill:url(#linear-gradient-19);}.cls-20{fill:url(#linear-gradient-20);}.cls-21{fill:url(#linear-gradient-21);}.cls-22{fill:url(#linear-gradient-22);}.cls-23{fill:url(#linear-gradient-23);}.cls-24{fill:url(#linear-gradient-24);}.cls-25{fill:url(#linear-gradient-25);}.cls-26{fill:url(#linear-gradient-26);}.cls-27{fill:url(#linear-gradient-27);}.cls-28{fill:url(#linear-gradient-28);}.cls-29{fill:url(#linear-gradient-29);}.cls-30{fill:url(#linear-gradient-30);}.cls-31{fill:url(#linear-gradient-31);}.cls-32{fill:url(#linear-gradient-32);}.cls-33{fill:url(#linear-gradient-33);}.cls-34{fill:url(#linear-gradient-34);}.cls-35{fill:url(#linear-gradient-35);}.cls-36{fill:url(#linear-gradient-36);}.cls-37{fill:url(#linear-gradient-37);}.cls-38{fill:url(#linear-gradient-38);}.cls-39{fill:url(#linear-gradient-39);}.cls-40{fill:url(#linear-gradient-40);}.cls-41{fill:url(#linear-gradient-41);}.cls-42{fill:url(#linear-gradient-42);}.cls-43{fill:url(#linear-gradient-43);}.cls-44{fill:url(#linear-gradient-44);}.cls-45{fill:url(#linear-gradient-45);}.cls-46{fill:url(#linear-gradient-46);}.cls-47{fill:url(#linear-gradient-47);}.cls-48{fill:url(#linear-gradient-48);}.cls-49{fill:url(#linear-gradient-49);}.cls-50{fill:url(#linear-gradient-50);}.cls-51{fill:url(#linear-gradient-51);}.cls-52{fill:url(#linear-gradient-52);}.cls-53{fill:url(#linear-gradient-53);}</style><linearGradient id="linear-gradient" x1="198.6" x2="255" y2="56.4" gradientUnits="userSpaceOnUse"><stop offset="0" stop-color="#231f20"/><stop offset="0.27" stop-color="#621e21"/><stop offset="0.62" stop-color="#ac1d23"/><stop offset="0.87" stop-color="#db1c24"/><stop offset="1" stop-color="#ed1c24"/></linearGradient><linearGradient id="linear-gradient-2" x1="198.6" y1="56.4" x2="255" y2="112.8" xlink:href="#linear-gradient"/><linearGradient id="linear-gradient-3" x1="198.6" y1="112.8" x2="255" y2="169.2" xlink:href="#linear-gradient"/><linearGradient id="linear-gradient-4" x1="198.6" y1="169.2" x2="255" y2="225.6" xlink:href="#linear-gradient"/><linearGradient id="linear-gradient-5" x1="198.6" y1="225.6" x2="255" y2="282" xlink:href="#linear-gradient"/><linearGradient id="linear-gradient-6" x1="506.6" x2="563" y2="56.4" xlink:href="#linear-gradient"/><linearGradient id="linear-gradient-7" x1="506.6" y1="56.4" x2="563" y2="112.8" xlink:href="#linear-gradient"/><linearGradient id="linear-gradient-8" x1="506.6" y1="112.8" x2="563" y2="169.2" xlink:href="#linear-gradient"/><linearGradient id="linear-gradient-9" x1="506.6" y1="169.2" x2="563" y2="225.6" xlink:href="#linear-gradient"/><linearGradient id="linear-gradient-10" x1="506.6" y1="225.6" x2="563" y2="282" xlink:href="#linear-gradient"/><linearGradient id="linear-gradient-11" x1="655.27" x2="711.67" y2="56.4" xlink:href="#linear-gradient"/><linearGradient id="linear-gradient-12" x1="711.67" x2="768.07" y2="56.4" xlink:href="#linear-gradient"/><linearGradient id="linear-gradient-13" x1="598.87" x2="655.27" y2="56.4" xlink:href="#linear-gradient"/><linearGradient id="linear-gradient-14" x1="655.27" y1="56.4" x2="711.67" y2="112.8" xlink:href="#linear-gradient"/><linearGradient id="linear-gradient-15" x1="655.27" y1="112.8" x2="711.67" y2="169.2" xlink:href="#linear-gradient"/><linearGradient id="linear-gradient-16" x1="655.27" y1="169.2" x2="711.67" y2="225.6" xlink:href="#linear-gradient"/><linearGradient id="linear-gradient-17" x1="655.27" y1="225.6" x2="711.67" y2="282" xlink:href="#linear-gradient"/><linearGradient id="linear-gradient-18" x1="906.73" x2="963.13" y2="56.4" xlink:href="#linear-gradient"/><linearGradient id="linear-gradient-19" x1="793.93" x2="850.33" y2="56.4" xlink:href="#linear-gradient"/><linearGradient id="linear-gradient-20" x1="906.73" y1="56.4" x2="963.13" y2="112.8" xlink:href="#linear-gradient"/><linearGradient id="linear-gradient-21" x1="793.93" y1="56.4" x2="850.33" y2="112.8" xlink:href="#linear-gradient"/><linearGradient id="linear-gradient-22" x1="850.33" y1="112.8" x2="906.73" y2="169.2" xlink:href="#linear-gradient"/><linearGradient id="linear-gradient-23" x1="850.33" y1="169.2" x2="906.73" y2="225.6" xlink:href="#linear-gradient"/><linearGradient id="linear-gradient-24" x1="850.33" y1="225.6" x2="906.73" y2="282" xlink:href="#linear-gradient"/><linearGradient id="linear-gradient-25" x1="987.13" y1="225.6" x2="1043.53" y2="282" xlink:href="#linear-gradient"/><linearGradient id="linear-gradient-26" x1="987.13" y1="169.2" x2="1043.53" y2="225.6" xlink:href="#linear-gradient"/><linearGradient id="linear-gradient-27" x1="1043.53" y1="225.6" x2="1099.93" y2="282" xlink:href="#linear-gradient"/><linearGradient id="linear-gradient-28" x1="1099.93" y1="225.6" x2="1156.33" y2="282" xlink:href="#linear-gradient"/><linearGradient id="linear-gradient-29" x1="987.13" x2="1043.53" y2="56.4" xlink:href="#linear-gradient"/><linearGradient id="linear-gradient-30" x1="1043.53" x2="1099.93" y2="56.4" xlink:href="#linear-gradient"/><linearGradient id="linear-gradient-31" x1="1099.93" x2="1156.33" y2="56.4" xlink:href="#linear-gradient"/><linearGradient id="linear-gradient-32" x1="1099.93" y1="56.4" x2="1156.33" y2="112.8" xlink:href="#linear-gradient"/><linearGradient id="linear-gradient-33" x1="1043.53" y1="112.8" x2="1099.93" y2="169.2" xlink:href="#linear-gradient"/><linearGradient id="linear-gradient-34" x1="293.4" x2="349.8" y2="56.4" xlink:href="#linear-gradient"/><linearGradient id="linear-gradient-35" x1="293.4" y1="56.4" x2="349.8" y2="112.8" xlink:href="#linear-gradient"/><linearGradient id="linear-gradient-36" x1="293.4" y1="112.8" x2="349.8" y2="169.2" xlink:href="#linear-gradient"/><linearGradient id="linear-gradient-37" x1="293.4" y1="169.2" x2="349.8" y2="225.6" xlink:href="#linear-gradient"/><linearGradient id="linear-gradient-38" x1="293.4" y1="225.6" x2="349.8" y2="282" xlink:href="#linear-gradient"/><linearGradient id="linear-gradient-39" x1="349.8" y1="225.6" x2="406.2" y2="282" xlink:href="#linear-gradient"/><linearGradient id="linear-gradient-40" x1="349.8" x2="406.2" y2="56.4" xlink:href="#linear-gradient"/><linearGradient id="linear-gradient-41" x1="406.2" x2="462.6" y2="56.4" xlink:href="#linear-gradient"/><linearGradient id="linear-gradient-42" x1="406.2" y1="225.6" x2="462.6" y2="282" xlink:href="#linear-gradient"/><linearGradient id="linear-gradient-43" x1="406.2" y1="169.2" x2="462.6" y2="225.6" xlink:href="#linear-gradient"/><linearGradient id="linear-gradient-44" x1="0" x2="56.4" y2="56.4" xlink:href="#linear-gradient"/><linearGradient id="linear-gradient-45" x1="56.4" x2="112.8" y2="56.4" xlink:href="#linear-gradient"/><linearGradient id="linear-gradient-46" x1="0" y1="56.4" x2="56.4" y2="112.8" xlink:href="#linear-gradient"/><linearGradient id="linear-gradient-47" x1="0" y1="112.8" x2="56.4" y2="169.2" xlink:href="#linear-gradient"/><linearGradient id="linear-gradient-48" x1="0" y1="169.2" x2="56.4" y2="225.6" xlink:href="#linear-gradient"/><linearGradient id="linear-gradient-49" x1="0" y1="225.6" x2="56.4" y2="282" xlink:href="#linear-gradient"/><linearGradient id="linear-gradient-50" x1="56.4" y1="225.6" x2="112.8" y2="282" xlink:href="#linear-gradient"/><linearGradient id="linear-gradient-51" x1="112.8" y1="169.2" x2="169.2" y2="225.6" xlink:href="#linear-gradient"/><linearGradient id="linear-gradient-52" x1="112.8" y1="112.8" x2="169.2" y2="169.2" xlink:href="#linear-gradient"/><linearGradient id="linear-gradient-53" x1="112.8" y1="56.4" x2="169.2" y2="112.8" xlink:href="#linear-gradient"/></defs><g id="Layer_2" data-name="Layer 2"><g id="Layer_1-2" data-name="Layer 1"><rect class="cls-1" x="198.6" width="56.4" height="56.4"/><rect class="cls-2" x="198.6" y="56.4" width="56.4" height="56.4"/><rect class="cls-3" x="198.6" y="112.8" width="56.4" height="56.4"/><rect class="cls-4" x="198.6" y="169.2" width="56.4" height="56.4"/><rect class="cls-5" x="198.6" y="225.6" width="56.4" height="56.4"/><rect class="cls-6" x="506.6" width="56.4" height="56.4"/><rect class="cls-7" x="506.6" y="56.4" width="56.4" height="56.4"/><rect class="cls-8" x="506.6" y="112.8" width="56.4" height="56.4"/><rect class="cls-9" x="506.6" y="169.2" width="56.4" height="56.4"/><rect class="cls-10" x="506.6" y="225.6" width="56.4" height="56.4"/><rect class="cls-11" x="655.27" width="56.4" height="56.4"/><rect class="cls-12" x="711.67" width="56.4" height="56.4"/><rect class="cls-13" x="598.87" width="56.4" height="56.4"/><rect class="cls-14" x="655.27" y="56.4" width="56.4" height="56.4"/><rect class="cls-15" x="655.27" y="112.8" width="56.4" height="56.4"/><rect class="cls-16" x="655.27" y="169.2" width="56.4" height="56.4"/><rect class="cls-17" x="655.27" y="225.6" width="56.4" height="56.4"/><rect class="cls-18" x="906.73" width="56.4" height="56.4"/><rect class="cls-19" x="793.93" width="56.4" height="56.4"/><rect class="cls-20" x="906.73" y="56.4" width="56.4" height="56.4"/><rect class="cls-21" x="793.93" y="56.4" width="56.4" height="56.4"/><rect class="cls-22" x="850.33" y="112.8" width="56.4" height="56.4"/><rect class="cls-23" x="850.33" y="169.2" width="56.4" height="56.4"/><rect class="cls-24" x="850.33" y="225.6" width="56.4" height="56.4"/><rect class="cls-25" x="987.13" y="225.6" width="56.4" height="56.4"/><rect class="cls-26" x="987.13" y="169.2" width="56.4" height="56.4"/><rect class="cls-27" x="1043.53" y="225.6" width="56.4" height="56.4"/><rect class="cls-28" x="1099.93" y="225.6" width="56.4" height="56.4"/><rect class="cls-29" x="987.13" width="56.4" height="56.4"/><rect class="cls-30" x="1043.53" width="56.4" height="56.4"/><rect class="cls-31" x="1099.93" width="56.4" height="56.4"/><rect class="cls-32" x="1099.93" y="56.4" width="56.4" height="56.4"/><rect class="cls-33" x="1043.53" y="112.8" width="56.4" height="56.4"/><rect class="cls-34" x="293.4" width="56.4" height="56.4"/><rect class="cls-35" x="293.4" y="56.4" width="56.4" height="56.4"/><rect class="cls-36" x="293.4" y="112.8" width="56.4" height="56.4"/><rect class="cls-37" x="293.4" y="169.2" width="56.4" height="56.4"/><rect class="cls-38" x="293.4" y="225.6" width="56.4" height="56.4"/><rect class="cls-39" x="349.8" y="225.6" width="56.4" height="56.4"/><rect class="cls-40" x="349.8" width="56.4" height="56.4"/><rect class="cls-41" x="406.2" width="56.4" height="56.4"/><rect class="cls-42" x="406.2" y="225.6" width="56.4" height="56.4"/><rect class="cls-43" x="406.2" y="169.2" width="56.4" height="56.4"/><rect class="cls-44" width="56.4" height="56.4"/><rect class="cls-45" x="56.4" width="56.4" height="56.4"/><rect class="cls-46" y="56.4" width="56.4" height="56.4"/><rect class="cls-47" y="112.8" width="56.4" height="56.4"/><rect class="cls-48" y="169.2" width="56.4" height="56.4"/><rect class="cls-49" y="225.6" width="56.4" height="56.4"/><rect class="cls-50" x="56.4" y="225.6" width="56.4" height="56.4"/><rect class="cls-51" x="112.8" y="169.2" width="56.4" height="56.4"/><rect class="cls-52" x="112.8" y="112.8" width="56.4" height="56.4"/><rect class="cls-53" x="112.8" y="56.4" width="56.4" height="56.4"/></g></g></svg>